<?xml version="1.0" standalone="no"?>
<!DOCTYPE svg PUBLIC "-//W3C//DTD SVG 20010904//EN"
 "http://www.w3.org/TR/2001/REC-SVG-20010904/DTD/svg10.dtd">
<svg version="1.0" xmlns="http://www.w3.org/2000/svg"
 width="32" height="32" viewBox="150 150 720 550"
 preserveAspectRatio="xMidYMid meet">

<g transform="translate(0.000000,1024.000000) scale(0.100000,-0.100000)"
fill="#000000" stroke="none">
<path d="M5565 7540 c-32 -12 -41 -28 -73 -135 -17 -55 -109 -356 -205 -670
-189 -617 -330 -1078 -482 -1580 -53 -176 -173 -567 -265 -870 -199 -648 -392
-1286 -427 -1404 -30 -104 -26 -144 20 -171 30 -19 52 -20 335 -20 333 0 359
4 380 56 6 16 43 135 82 264 40 129 96 312 125 405 30 94 149 481 265 860 194
634 361 1172 621 2010 55 176 127 408 160 515 34 107 92 293 130 413 38 120
69 227 69 238 0 36 -28 76 -61 88 -38 13 -642 14 -674 1z"/>
<path d="M3428 6836 c-47 -25 -488 -417 -481 -429 3 -6 1 -7 -5 -3 -14 8 -338
-276 -334 -294 1 -6 -2 -9 -8 -5 -12 8 -370 -303 -367 -319 1 -6 -4 -10 -12
-8 -18 4 -92 -68 -84 -81 4 -6 1 -7 -6 -2 -15 9 -73 -43 -64 -58 3 -6 1 -7 -5
-3 -12 7 -95 -62 -87 -74 2 -4 -5 -16 -18 -26 l-22 -19 20 24 c39 47 -4 15
-124 -92 -67 -60 -119 -112 -116 -116 2 -5 -5 -17 -18 -27 l-22 -19 19 23 c11
12 15 22 10 22 -14 -1 -46 -49 -39 -60 4 -6 1 -9 -7 -8 -23 5 -49 -90 -45
-163 5 -89 36 -148 111 -221 58 -55 94 -78 65 -40 -11 14 -9 13 9 -2 12 -11
20 -22 17 -24 -7 -7 45 -62 58 -62 5 0 3 8 -4 18 -11 14 -9 13 9 -2 12 -11 20
-22 17 -24 -7 -7 46 -62 58 -62 6 0 2 10 -9 23 l-19 22 22 -19 c12 -10 21 -23
20 -30 -1 -6 4 -10 11 -8 8 1 11 -2 8 -7 -7 -11 20 -35 32 -27 6 3 15 -1 22
-9 7 -8 9 -15 4 -15 -5 -1 6 -14 25 -30 19 -16 39 -26 45 -23 6 3 8 2 3 -2 -4
-5 3 -19 15 -32 23 -24 44 -32 32 -10 -5 8 -3 8 9 -2 9 -7 15 -17 12 -21 -7
-12 144 -142 156 -134 7 4 9 3 6 -3 -9 -14 61 -75 75 -67 6 4 8 3 5 -3 -9 -14
130 -136 144 -127 7 4 9 3 6 -3 -9 -14 279 -266 293 -258 6 4 9 1 8 -6 -4 -18
532 -481 549 -475 8 3 12 2 8 -3 -8 -14 48 -23 76 -13 13 6 33 20 44 32 19 21
20 38 23 314 2 218 0 302 -10 331 -9 28 -36 59 -96 112 -47 42 -87 71 -94 67
-6 -4 -8 -3 -5 3 9 14 -620 566 -635 557 -6 -4 -8 -3 -5 3 8 13 -56 75 -74 71
-8 -2 -13 2 -12 9 3 14 -101 104 -125 108 -9 1 -16 8 -14 14 1 7 -4 22 -13 34
-8 12 -15 43 -15 68 0 58 13 75 150 194 55 48 98 91 95 95 -3 4 3 14 12 21 12
10 14 10 9 2 -16 -27 9 -10 99 69 52 45 91 86 88 91 -3 6 -2 7 4 4 6 -4 71 46
144 109 422 366 478 417 488 447 14 40 15 579 0 629 -16 60 -82 85 -141 54z
m-1801 -1753 c-2 -16 -4 -3 -4 27 0 30 2 43 4 28 2 -16 2 -40 0 -55z m23 -78
c0 -5 -5 -3 -10 5 -5 8 -10 20 -10 25 0 6 5 3 10 -5 5 -8 10 -19 10 -25z m80
-110 c19 -19 32 -35 29 -35 -3 0 -20 16 -39 35 -19 19 -32 35 -29 35 3 0 20
-16 39 -35z"/>
<path d="M6712 6840 c-47 -19 -52 -56 -52 -374 0 -162 3 -301 6 -310 3 -9 11
-13 17 -9 6 4 7 1 3 -6 -10 -16 7 -34 131 -143 61 -53 108 -86 114 -82 7 4 9
3 5 -4 -8 -14 361 -335 376 -326 6 4 8 3 5 -4 -4 -6 73 -80 175 -168 101 -88
200 -175 220 -195 21 -20 39 -32 40 -27 2 6 5 -14 6 -44 1 -29 -3 -65 -9 -81
-7 -15 -126 -127 -275 -258 -145 -127 -261 -236 -257 -242 3 -5 1 -7 -5 -3 -6
3 -103 -75 -219 -175 -253 -221 -294 -259 -286 -272 3 -6 1 -7 -4 -4 -6 4 -17
-1 -24 -10 -11 -12 -15 -80 -17 -309 -3 -283 3 -362 27 -357 6 2 10 -2 8 -9
-1 -7 17 -19 40 -27 38 -14 46 -13 75 1 41 19 130 97 123 107 -2 4 2 8 9 8 20
0 296 245 289 256 -3 6 -1 7 4 4 15 -9 345 282 337 295 -4 6 -2 8 4 4 14 -8
154 113 145 127 -3 5 -2 7 4 4 13 -8 93 60 90 76 -1 7 4 11 11 9 17 -3 154
117 146 129 -3 5 1 6 8 4 8 -3 29 11 48 32 19 20 26 31 15 23 -15 -11 -14 -8
4 13 25 28 43 38 21 12 -29 -35 7 -11 76 51 41 37 71 71 67 77 -3 6 -1 7 5 3
13 -8 275 222 267 235 -4 5 0 6 8 3 22 -8 103 89 123 149 25 75 22 160 -8 222
-13 28 -30 49 -36 48 -6 -2 -9 3 -6 10 6 16 -36 57 -62 62 -11 1 -18 7 -17 12
3 17 -276 255 -290 247 -7 -4 -9 -3 -4 1 4 5 -9 26 -30 47 -37 38 -67 53 -42
21 13 -16 12 -17 -3 -4 -10 7 -16 17 -13 21 8 12 -52 63 -66 55 -7 -5 -10 -4
-6 2 4 6 -39 51 -96 99 -56 49 -137 119 -179 157 -42 38 -85 70 -95 72 -10 1
-17 7 -16 13 3 15 -346 314 -359 306 -6 -4 -8 -3 -5 3 9 15 -190 186 -205 177
-6 -4 -8 -3 -5 3 9 14 -130 136 -144 127 -7 -4 -9 -3 -6 3 8 13 -70 86 -84 78
-5 -4 -8 -1 -7 6 7 29 -72 48 -120 29z"/>
</g>
</svg>
